<svg width="435" height="364" viewBox="0 0 435 364" fill="none" xmlns="http://www.w3.org/2000/svg">
<path d="M161.197 25.2517C156.251 32.4014 163.801 36.6486 163.801 36.6486C163.801 36.6486 158.102 45.438 168.779 48.7505C168.779 48.7505 166.65 63.2302 177.082 66.7886L240.622 62.0331C240.622 62.0331 249.154 11.4608 224.966 2.19571C200.778 -7.06933 171.137 15.4947 168.533 23.3331C168.55 23.3495 164.014 21.1849 161.197 25.2517Z" fill="#35174D"/>
<path d="M433.83 262.912C431.095 291.232 373.155 290.543 364.476 290.543C355.813 290.543 351.146 286.46 351.146 286.46L353.766 303.793L358.122 332.572H298.43C298.43 332.572 128.231 178.477 128.231 155.077C128.231 131.693 140.71 122.936 150.65 121.969C160.575 121.001 208.803 108.621 209.54 104.734C210.26 100.848 208.295 91.5172 208.295 91.5172C179.489 94.1738 176.934 65.9195 176.934 65.9195C170.58 53.9815 170.056 35.2711 181.716 40.9777C193.376 46.6843 209.409 40.5841 211.783 37.2552C214.174 33.9428 219.611 32.0898 220.266 32.8769C220.938 33.6804 220.266 40.4365 220.266 40.4365L225.834 41.3712C225.834 41.3712 227.685 49.9967 227.816 52.6533C227.947 55.3098 229.945 55.8345 230.862 55.8345C231.795 55.8345 233.122 43.2242 233.122 43.2242C233.122 43.2242 244.11 41.3712 244.11 52.6533C244.11 63.9353 234.579 64.7224 234.579 64.7224C236.544 85.0727 244.749 94.305 252.953 98.5357C252.953 98.5357 252.953 98.5357 252.953 98.5521C261.518 102.98 270.116 101.947 271.622 102.422C274.586 103.34 304.031 101.619 304.031 101.619C337.111 99.1097 353.307 127.216 356.271 130.857C359.235 134.514 375.661 154.388 401.208 184.086C426.771 213.783 436.581 234.576 433.83 262.912Z" fill="#6246EA"/>
<path d="M234.497 120.099C214.207 122.428 209.54 104.734 209.54 104.734C210.26 100.848 208.295 91.5172 208.295 91.5172C179.489 94.1738 176.934 65.9195 176.934 65.9195C170.58 53.9815 170.056 35.2711 181.716 40.9777C193.376 46.6843 209.409 40.5841 211.783 37.2552C214.174 33.9428 219.611 32.0898 220.266 32.8769C220.937 33.6804 220.266 40.4365 220.266 40.4365L225.834 41.3712C225.834 41.3712 227.685 49.9967 227.816 52.6533C227.947 55.3098 229.944 55.8345 230.862 55.8345C231.795 55.8345 233.121 43.2242 233.121 43.2242C233.121 43.2242 244.11 41.3712 244.11 52.6533C244.11 63.9353 234.579 64.7224 234.579 64.7224C236.544 85.0727 244.749 94.305 252.953 98.5357C252.953 98.5357 252.953 98.5357 252.953 98.5521C253.019 99.2244 254.427 117.82 234.497 120.099Z" fill="#FDAC9D"/>
<path d="M353.766 303.793C353.766 303.793 331.74 301.284 321.996 297.759C312.268 294.233 293.616 291.216 293.616 291.216V262.486L351.85 282.607L351.44 288.379L353.766 303.793Z" fill="#37164D"/>
<path d="M349.328 239.2C347.346 237.856 347.314 234.855 349.213 233.379C350.179 232.625 351.391 232.018 352.865 231.805C357.238 231.182 373.876 230.296 378.903 230.034C379.886 229.985 380.607 230.755 381.556 230.968C385.126 231.805 390.4 239.66 390.678 247.318C391.055 257.107 392.234 288.149 387.763 289.445C383.849 290.576 362.445 292.052 354.978 288.756C353.618 288.166 352.75 286.821 352.75 285.345C352.783 277.769 352.947 247.973 352.849 245.284C352.783 243.366 351.49 240.693 349.328 239.2Z" fill="#35174D"/>
<path d="M352.849 232.641C352.636 232.641 352.423 232.559 352.259 232.395L331.035 210.405C330.724 210.077 330.724 209.552 331.052 209.241C331.379 208.929 331.903 208.929 332.215 209.257L353.438 231.247C353.749 231.575 353.749 232.1 353.422 232.411C353.258 232.559 353.045 232.641 352.849 232.641Z" fill="#35164B"/>
<path d="M303.212 153.782H32.4299V332.572H303.212V153.782Z" fill="#3A3A47"/>
<path d="M303.212 153.782H32.4299V167.868H303.212V153.782Z" fill="#FFBB4E"/>
<path d="M145.164 207.224H112.657C111.757 207.224 111.02 206.486 111.02 205.584C111.02 204.682 111.757 203.944 112.657 203.944H145.164C146.065 203.944 146.802 204.682 146.802 205.584C146.802 206.486 146.065 207.224 145.164 207.224Z" fill="#E5E6ED"/>
<path d="M153.746 217.702H121.255C120.354 217.702 119.617 216.964 119.617 216.062C119.617 215.161 120.354 214.423 121.255 214.423H153.762C154.663 214.423 155.4 215.161 155.4 216.062C155.4 216.964 154.663 217.702 153.746 217.702Z" fill="#E5E6ED"/>
<path d="M139.318 261.961H118.504C117.603 261.961 116.866 261.223 116.866 260.321C116.866 259.42 117.603 258.682 118.504 258.682H139.318C140.219 258.682 140.956 259.42 140.956 260.321C140.956 261.223 140.235 261.961 139.318 261.961Z" fill="#E5E6ED"/>
<path d="M159.526 274.063H118.504C117.603 274.063 116.866 273.325 116.866 272.423C116.866 271.521 117.603 270.784 118.504 270.784H159.526C160.427 270.784 161.164 271.521 161.164 272.423C161.164 273.325 160.427 274.063 159.526 274.063Z" fill="#E5E6ED"/>
<path d="M189.708 286.165H128.068C127.167 286.165 126.43 285.427 126.43 284.525C126.43 283.623 127.167 282.885 128.068 282.885H189.708C190.609 282.885 191.346 283.623 191.346 284.525C191.346 285.427 190.609 286.165 189.708 286.165Z" fill="#E5E6ED"/>
<path d="M171.104 298.267H135.027C134.127 298.267 133.39 297.529 133.39 296.627C133.39 295.725 134.127 294.987 135.027 294.987H171.104C172.005 294.987 172.742 295.725 172.742 296.627C172.742 297.529 172.005 298.267 171.104 298.267Z" fill="#E5E6ED"/>
<path d="M163.195 311.927H127.118C126.217 311.927 125.48 311.189 125.48 310.287C125.48 309.385 126.217 308.647 127.118 308.647H163.195C164.095 308.647 164.832 309.385 164.832 310.287C164.832 311.189 164.112 311.927 163.195 311.927Z" fill="#E5E6ED"/>
<path d="M234.89 311.927H198.813C197.912 311.927 197.176 311.189 197.176 310.287C197.176 309.385 197.912 308.647 198.813 308.647H234.89C235.791 308.647 236.528 309.385 236.528 310.287C236.528 311.189 235.791 311.927 234.89 311.927Z" fill="#E5E6ED"/>
<path d="M216.843 298.267H180.766C179.866 298.267 179.129 297.529 179.129 296.627C179.129 295.725 179.866 294.987 180.766 294.987H216.843C217.744 294.987 218.481 295.725 218.481 296.627C218.481 297.529 217.744 298.267 216.843 298.267Z" fill="#BB7FEF"/>
<path d="M224.016 194.925H187.939C187.039 194.925 186.302 194.187 186.302 193.285C186.302 192.383 187.039 191.645 187.939 191.645H224.016C224.917 191.645 225.654 192.383 225.654 193.285C225.654 194.187 224.917 194.925 224.016 194.925Z" fill="#BB7FEF"/>
<path d="M212.733 286.165H199.223C198.322 286.165 197.585 285.427 197.585 284.525C197.585 283.623 198.322 282.885 199.223 282.885H212.733C213.634 282.885 214.371 283.623 214.371 284.525C214.371 285.427 213.65 286.165 212.733 286.165Z" fill="#11BDED"/>
<path d="M186.94 311.927H173.43C172.529 311.927 171.792 311.189 171.792 310.287C171.792 309.385 172.529 308.647 173.43 308.647H186.94C187.841 308.647 188.578 309.385 188.578 310.287C188.578 311.189 187.841 311.927 186.94 311.927Z" fill="#11BDED"/>
<path d="M244.814 274.063H171.104C170.204 274.063 169.467 273.325 169.467 272.423C169.467 271.521 170.204 270.784 171.104 270.784H244.814C245.715 270.784 246.452 271.521 246.452 272.423C246.452 273.325 245.715 274.063 244.814 274.063Z" fill="#E5E6ED"/>
<path d="M170.122 228.492H137.631C136.731 228.492 135.994 227.754 135.994 226.852C135.994 225.951 136.731 225.213 137.631 225.213H170.138C171.039 225.213 171.776 225.951 171.776 226.852C171.776 227.754 171.039 228.492 170.122 228.492Z" fill="#E5E6ED"/>
<path d="M266.415 194.925H233.908C233.007 194.925 232.27 194.187 232.27 193.285C232.27 192.383 233.007 191.645 233.908 191.645H266.415C267.315 191.645 268.052 192.383 268.052 193.285C268.052 194.187 267.332 194.925 266.415 194.925Z" fill="#E5E6ED"/>
<path d="M159.526 239.512H137.631C136.731 239.512 135.994 238.774 135.994 237.872C135.994 236.97 136.731 236.232 137.631 236.232H159.526C160.427 236.232 161.164 236.97 161.164 237.872C161.164 238.774 160.427 239.512 159.526 239.512Z" fill="#E5E6ED"/>
<path d="M207.968 249.843H137.631C136.731 249.843 135.994 249.105 135.994 248.203C135.994 247.301 136.731 246.563 137.631 246.563H207.984C208.885 246.563 209.622 247.301 209.622 248.203C209.622 249.105 208.885 249.843 207.968 249.843Z" fill="#E5E6ED"/>
<path d="M236.495 207.224H184.549C183.649 207.224 182.912 206.486 182.912 205.584C182.912 204.682 183.649 203.944 184.549 203.944H236.495C237.396 203.944 238.133 204.682 238.133 205.584C238.133 206.486 237.396 207.224 236.495 207.224Z" fill="#E5E6ED"/>
<path d="M290.439 207.224H244.814C243.914 207.224 243.177 206.486 243.177 205.584C243.177 204.682 243.914 203.944 244.814 203.944H290.439C291.339 203.944 292.076 204.682 292.076 205.584C292.076 206.486 291.339 207.224 290.439 207.224Z" fill="#11BDED"/>
<path d="M200.484 322.291H154.859C153.958 322.291 153.222 321.553 153.222 320.651C153.222 319.749 153.958 319.011 154.859 319.011H200.484C201.384 319.011 202.121 319.749 202.121 320.651C202.121 321.553 201.384 322.291 200.484 322.291Z" fill="#11BDED"/>
<path d="M175.46 207.388H156.218C155.318 207.388 154.581 206.65 154.581 205.748C154.581 204.846 155.318 204.108 156.218 204.108H175.46C176.361 204.108 177.098 204.846 177.098 205.748C177.098 206.65 176.378 207.388 175.46 207.388Z" fill="#F39695"/>
<path d="M199.419 228.492H180.177C179.276 228.492 178.539 227.754 178.539 226.852C178.539 225.951 179.276 225.213 180.177 225.213H199.419C200.32 225.213 201.057 225.951 201.057 226.852C201.057 227.754 200.32 228.492 199.419 228.492Z" fill="#F39695"/>
<path d="M223.951 239.512H168.058C167.158 239.512 166.421 238.774 166.421 237.872C166.421 236.97 167.158 236.232 168.058 236.232H223.951C224.851 236.232 225.588 236.97 225.588 237.872C225.588 238.774 224.851 239.512 223.951 239.512Z" fill="#F39695"/>
<path d="M283.659 239.512H257.997C257.096 239.512 256.359 238.774 256.359 237.872C256.359 236.97 257.096 236.232 257.997 236.232H283.659C284.559 236.232 285.296 236.97 285.296 237.872C285.296 238.774 284.559 239.512 283.659 239.512Z" fill="#F39695"/>
<path d="M250.169 239.512H230.043C229.142 239.512 228.405 238.774 228.405 237.872C228.405 236.97 229.142 236.232 230.043 236.232H250.169C251.07 236.232 251.807 236.97 251.807 237.872C251.807 238.774 251.07 239.512 250.169 239.512Z" fill="#FFBB4E"/>
<path d="M147.572 322.291H127.429C126.528 322.291 125.791 321.553 125.791 320.651C125.791 319.749 126.528 319.011 127.429 319.011H147.555C148.456 319.011 149.193 319.749 149.193 320.651C149.193 321.553 148.472 322.291 147.572 322.291Z" fill="#FFBB4E"/>
<path d="M203.3 184.266H183.174C182.273 184.266 181.536 183.528 181.536 182.626C181.536 181.724 182.273 180.986 183.174 180.986H203.3C204.201 180.986 204.938 181.724 204.938 182.626C204.938 183.528 204.217 184.266 203.3 184.266Z" fill="#FFBB4E"/>
<path d="M99.1306 153.765H32.4299V332.556H99.1306V153.765Z" fill="#1C1A23"/>
<path d="M99.1306 213.39H32.4299V226.853H99.1306V213.39Z" fill="black"/>
<path d="M47.1849 200.533H39.2915V208.437H47.1849V200.533Z" fill="#62687E"/>
<path d="M54.7508 216.062H46.8574V223.966H54.7508V216.062Z" fill="#62687E"/>
<path d="M66.3288 229.968H58.4354V237.872H66.3288V229.968Z" fill="#62687E"/>
<path d="M66.3288 243.169H58.4354V251.073H66.3288V243.169Z" fill="#62687E"/>
<path d="M66.3288 256.369H58.4354V264.273H66.3288V256.369Z" fill="#62687E"/>
<path d="M66.3288 269.57H58.4354V277.474H66.3288V269.57Z" fill="#62687E"/>
<path d="M66.3288 282.771H58.4354V290.675H66.3288V282.771Z" fill="#62687E"/>
<path d="M191.608 113.475V192.908H24.6184V113.475C24.6184 106.915 29.9243 101.602 36.4749 101.602H179.751C186.302 101.602 191.608 106.915 191.608 113.475Z" fill="#D9DEF1"/>
<path d="M191.608 113.475V130.414H24.6184V113.475C24.6184 106.915 29.9243 101.602 36.4749 101.602H179.751C186.302 101.602 191.608 106.915 191.608 113.475Z" fill="#33184B"/>
<path d="M93.1369 141.598H55.4386C54.7836 141.598 54.2595 142.122 54.2595 142.778V180.527C54.2595 181.183 54.7836 181.708 55.4386 181.708H93.1369C93.7919 181.708 94.316 181.183 94.316 180.527V142.762C94.316 142.122 93.7919 141.598 93.1369 141.598ZM91.9742 143.943V151.076H56.6177V143.943H91.9742ZM56.6177 179.33V153.404H91.9742V179.33H56.6177Z" fill="white"/>
<path d="M64.9041 167.507H76.6295C77.2846 167.507 77.8086 166.982 77.8086 166.326C77.8086 165.67 77.2846 165.146 76.6295 165.146H64.9041C64.249 165.146 63.725 165.67 63.725 166.326C63.7414 166.982 64.2654 167.507 64.9041 167.507Z" fill="white"/>
<path d="M64.9041 172.213H74.2877C74.9427 172.213 75.4668 171.689 75.4668 171.033C75.4668 170.377 74.9427 169.852 74.2877 169.852H64.9041C64.249 169.852 63.725 170.377 63.725 171.033C63.725 171.689 64.2654 172.213 64.9041 172.213Z" fill="white"/>
<path d="M76.646 174.558H64.9205C64.2655 174.558 63.7415 175.083 63.7415 175.739C63.7415 176.395 64.2655 176.92 64.9205 176.92H76.646C77.301 176.92 77.8251 176.395 77.8251 175.739C77.8251 175.083 77.2847 174.558 76.646 174.558Z" fill="white"/>
<path d="M68.769 162.473C69.2275 162.932 69.9644 162.932 70.423 162.473C70.8815 162.014 70.8815 161.276 70.423 160.816L68.9 159.291L70.423 157.766C70.8815 157.307 70.8815 156.569 70.423 156.11C69.9644 155.651 69.2275 155.651 68.769 156.11L66.4272 158.455C65.9686 158.914 65.9686 159.652 66.4272 160.111L68.769 162.473Z" fill="white"/>
<path d="M79.6755 159.291L78.1689 160.8C77.7103 161.259 77.7103 161.997 78.1689 162.456C78.6274 162.915 79.3643 162.915 79.8229 162.456L82.1647 160.111C82.6232 159.652 82.6232 158.914 82.1647 158.455L79.8065 156.094C79.348 155.635 78.611 155.635 78.1525 156.094C77.694 156.553 77.694 157.291 78.1525 157.75L79.6755 159.291Z" fill="white"/>
<path d="M72.601 162.686C73.1742 162.981 73.8784 162.735 74.1732 162.161L76.515 157.455C76.8097 156.881 76.5641 156.176 75.9909 155.881C75.4178 155.585 74.7136 155.831 74.4188 156.405L72.077 161.112C71.7822 161.686 72.0115 162.391 72.601 162.686Z" fill="white"/>
<path d="M83.6714 165.162H81.3296C80.6745 165.162 80.1505 165.687 80.1505 166.343C80.1505 166.999 80.6745 167.523 81.3296 167.523H83.6714C84.3265 167.523 84.8505 166.999 84.8505 166.343C84.8505 165.687 84.3265 165.162 83.6714 165.162Z" fill="white"/>
<path d="M83.6713 169.868H78.9713C78.3163 169.868 77.7922 170.393 77.7922 171.049C77.7922 171.705 78.3163 172.23 78.9713 172.23H83.6713C84.3264 172.23 84.8504 171.705 84.8504 171.049C84.8504 170.393 84.3264 169.868 83.6713 169.868Z" fill="white"/>
<path d="M83.6714 174.558H81.3296C80.6745 174.558 80.1505 175.083 80.1505 175.739C80.1505 176.395 80.6745 176.92 81.3296 176.92H83.6714C84.3265 176.92 84.8505 176.395 84.8505 175.739C84.8505 175.083 84.3265 174.558 83.6714 174.558Z" fill="white"/>
<path d="M88.3713 148.714C89.0225 148.714 89.5504 148.186 89.5504 147.534C89.5504 146.882 89.0225 146.353 88.3713 146.353C87.7202 146.353 87.1923 146.882 87.1923 147.534C87.1923 148.186 87.7202 148.714 88.3713 148.714Z" fill="white"/>
<path d="M83.6714 148.714C84.3226 148.714 84.8505 148.186 84.8505 147.534C84.8505 146.882 84.3226 146.353 83.6714 146.353C83.0202 146.353 82.4923 146.882 82.4923 147.534C82.4923 148.186 83.0202 148.714 83.6714 148.714Z" fill="white"/>
<path d="M78.9877 148.714C79.6389 148.714 80.1668 148.186 80.1668 147.534C80.1668 146.882 79.6389 146.353 78.9877 146.353C78.3365 146.353 77.8086 146.882 77.8086 147.534C77.8086 148.186 78.3365 148.714 78.9877 148.714Z" fill="white"/>
<path d="M291.487 175.706C290.127 175.591 289.44 174.001 290.275 172.918C291.88 170.836 294.942 168.491 300.166 169.77C300.166 169.77 309.975 167.376 311.58 178.543C313.169 189.694 315.036 193.679 315.298 206.174C315.56 218.653 309.73 238.84 334.655 238.315L347.657 238.331C347.657 238.331 352.701 237.79 352.963 248.416C353.193 257.534 354.011 279.343 354.224 285.362C354.257 286.247 353.618 287.018 352.734 287.149C346.527 288.018 323.371 291.15 315.822 290.921C307.06 290.658 284.789 283.213 286.115 256.927C287.442 230.624 289.571 200.878 287.704 194.777C285.886 188.776 284.052 183.545 290.045 181.347C290.275 181.265 290.504 181.232 290.75 181.249C292.207 181.347 297.382 182.462 298.054 192.924C298.856 205.141 300.968 223.212 302.557 221.884C304.145 220.555 302.819 191.596 301.493 187.89C300.248 184.332 303.425 176.674 291.487 175.706Z" fill="#FFAA97"/>
<path d="M291.896 297.923V350.889C291.896 357.777 286.312 363.368 279.434 363.368H226.538C219.66 363.368 214.092 357.777 214.092 350.889V297.923C214.092 291.035 219.66 285.46 226.538 285.46H279.434C286.312 285.46 291.896 291.035 291.896 297.923Z" fill="#F7684E"/>
<path d="M291.896 297.923V316.945C278.32 312.271 268.314 317.732 263.057 324.406C257.801 331.08 251.201 344.412 237.576 339.148C223.967 333.901 214.092 341.296 214.092 341.296V297.923C214.092 291.035 219.66 285.46 226.538 285.46H279.434C286.312 285.46 291.896 291.035 291.896 297.923Z" fill="#FFBB4E"/>
<path d="M237.576 327.784C245.526 327.784 251.971 321.331 251.971 313.37C251.971 305.409 245.526 298.956 237.576 298.956C229.626 298.956 223.181 305.409 223.181 313.37C223.181 321.331 229.626 327.784 237.576 327.784Z" fill="white"/>
<path d="M177.458 125.855H61.3505C56.0773 125.855 51.8031 121.575 51.8031 116.295C51.8031 111.015 56.0773 106.735 61.3505 106.735H177.442C182.715 106.735 186.99 111.015 186.99 116.295C186.99 121.592 182.715 125.855 177.458 125.855Z" fill="white"/>
<path d="M39.2915 125.855C34.0184 125.855 29.7441 121.575 29.7441 116.295C29.7441 111.015 34.0184 106.735 39.2915 106.735C44.5647 106.735 48.8389 111.015 48.8389 116.295C48.8389 121.592 44.5647 125.855 39.2915 125.855Z" fill="white"/>
<path d="M177.671 154.995H112.657C111.986 154.995 111.429 154.438 111.429 153.765C111.429 153.093 111.986 152.535 112.657 152.535H177.671C178.343 152.535 178.9 153.093 178.9 153.765C178.9 154.438 178.343 154.995 177.671 154.995Z" fill="white"/>
<path d="M155.4 147.813H112.248C111.806 147.813 111.429 147.255 111.429 146.583C111.429 145.91 111.789 145.353 112.248 145.353H155.4C155.842 145.353 156.218 145.91 156.218 146.583C156.218 147.255 155.842 147.813 155.4 147.813Z" fill="white"/>
<path d="M129.722 161.636H112.657C111.986 161.636 111.429 161.079 111.429 160.407C111.429 159.734 111.986 159.177 112.657 159.177H129.738C130.409 159.177 130.966 159.734 130.966 160.407C130.966 161.079 130.409 161.636 129.722 161.636Z" fill="white"/>
<path d="M144.575 180.56H113.656C112.428 180.56 111.429 180.003 111.429 179.33C111.429 178.658 112.428 178.1 113.656 178.1H144.575C145.803 178.1 146.802 178.658 146.802 179.33C146.802 180.003 145.803 180.56 144.575 180.56Z" fill="white"/>
<path d="M177.671 161.636H134.765C134.094 161.636 133.537 161.079 133.537 160.407C133.537 159.734 134.094 159.177 134.765 159.177H177.671C178.343 159.177 178.9 159.734 178.9 160.407C178.9 161.079 178.343 161.636 177.671 161.636Z" fill="white"/>
<path d="M177.671 169.098H112.657C111.986 169.098 111.429 168.54 111.429 167.868C111.429 167.195 111.986 166.638 112.657 166.638H177.671C178.343 166.638 178.9 167.195 178.9 167.868C178.9 168.54 178.343 169.098 177.671 169.098Z" fill="white"/>
<path d="M148.554 174.706H112.117C111.74 174.706 111.429 174.148 111.429 173.476C111.429 172.804 111.74 172.246 112.117 172.246H148.554C148.931 172.246 149.242 172.804 149.242 173.476C149.242 174.148 148.931 174.706 148.554 174.706Z" fill="white"/>
<path d="M178.048 174.706H152.124C151.846 174.706 151.633 174.148 151.633 173.476C151.633 172.804 151.846 172.246 152.124 172.246H178.048C178.326 172.246 178.539 172.804 178.539 173.476C178.539 174.148 178.31 174.706 178.048 174.706Z" fill="white"/>
<path d="M13.3024 97.9126C4.24626 97.7322 1.23302 104.16 1.23302 120.296C1.23302 136.432 1.23302 145.763 1.23302 145.763C1.23302 145.763 -4.05652 159.865 7.27588 163.637C7.27588 163.637 4.26264 173.706 13.3187 178.494C13.3187 178.494 4.78668 192.629 32.4463 205.731V192.892H24.6348C24.6348 192.892 32.4299 187.562 44.4992 184.791C56.5686 182.02 58.0752 171.951 53.801 169.18C49.5268 166.408 35.9508 168.425 35.9508 168.425C35.9508 168.425 56.1428 158.849 55.979 148.78C55.8153 138.712 44.2536 140.975 44.2536 140.975C44.2536 140.975 49.7888 132.661 47.0212 127.626C44.2536 122.592 29.171 122.33 20.6062 128.627L21.3595 111.244C21.3431 111.261 20.3769 98.0602 13.3024 97.9126Z" fill="#FBA795"/>
<path d="M74.2878 203.386H51.8195V205.567H74.2878V203.386Z" fill="#62687E"/>
<path d="M75.2703 218.916H59.3853V221.097H75.2703V218.916Z" fill="#62687E"/>
<path d="M88.142 232.822H70.9469V235.003H88.142V232.822Z" fill="#62687E"/>
<path d="M88.142 246.022H70.9469V248.203H88.142V246.022Z" fill="#62687E"/>
<path d="M88.142 259.223H70.9469V261.404H88.142V259.223Z" fill="#62687E"/>
<path d="M88.142 272.423H70.9469V274.604H88.142V272.423Z" fill="#62687E"/>
<path d="M88.142 285.624H70.9469V287.805H88.142V285.624Z" fill="#62687E"/>
<path d="M54.7508 298.054H46.8574V305.958H54.7508V298.054Z" fill="#62687E"/>
<path d="M81.8535 300.907H59.3853V303.088H81.8535V300.907Z" fill="#62687E"/>
<path d="M54.7508 310.287H46.8574V318.191H54.7508V310.287Z" fill="#62687E"/>
<path d="M81.8535 313.14H59.3853V315.321H81.8535V313.14Z" fill="#62687E"/>
<path d="M2.60858 146.255C2.46119 146.255 2.31381 146.206 2.18279 146.107C1.85527 145.861 1.78976 145.369 2.01903 145.025C2.36293 144.517 10.6821 132.628 19.5744 128.692C19.9511 128.528 20.3769 128.709 20.5243 129.102C20.6716 129.496 20.5079 129.939 20.1312 130.103C11.6155 133.858 3.28001 145.796 3.19813 145.911C3.06712 146.14 2.83785 146.255 2.60858 146.255Z" fill="#DD6B66"/>
<path d="M7.25946 164.473C7.06294 164.473 6.85005 164.391 6.68629 164.244C6.35876 163.932 6.34239 163.407 6.65354 163.079C7.52148 162.161 28.1884 140.663 44.188 140.155C44.6466 140.089 45.0232 140.499 45.0396 140.942C45.056 141.401 44.6957 141.778 44.2535 141.794C28.9253 142.286 8.0619 163.981 7.84901 164.211C7.68524 164.391 7.47235 164.473 7.25946 164.473Z" fill="#DD6B66"/>
<path d="M13.3023 179.33C13.0895 179.33 12.8766 179.248 12.7128 179.084C12.4017 178.756 12.4016 178.248 12.7292 177.92C13.0567 177.608 20.8846 170.164 35.8034 167.622C36.2456 167.54 36.6713 167.851 36.7532 168.294C36.8351 168.737 36.524 169.163 36.0818 169.245C21.7034 171.689 13.9574 179.019 13.8755 179.101C13.7118 179.248 13.4989 179.33 13.3023 179.33Z" fill="#DD6B66"/>
<path d="M201.728 55.5885C201.466 55.5885 201.221 55.5229 200.975 55.4081C200.189 54.9981 199.861 54.0306 200.254 53.2271C200.402 52.932 203.955 46.1267 215.681 50.4722C216.532 50.7838 216.958 51.7349 216.647 52.5712C216.336 53.4239 215.402 53.8503 214.534 53.5387C205.708 50.259 203.268 54.5226 203.169 54.703C202.891 55.2769 202.318 55.5885 201.728 55.5885Z" fill="#35174D"/>
<path d="M189.708 57.3597C189.2 57.3597 188.693 57.1137 188.365 56.671C184.32 50.8988 179.031 53.4733 178.441 53.7849C177.655 54.2112 176.656 53.9161 176.23 53.1126C175.804 52.3254 176.099 51.3251 176.885 50.8988C179.751 49.3409 186.384 48.1439 191.034 54.7852C191.558 55.5231 191.378 56.5562 190.641 57.0646C190.363 57.2613 190.035 57.3597 189.708 57.3597Z" fill="#35174D"/>
<path d="M200.451 78.1691C200.434 78.1691 200.418 78.1691 200.402 78.1691C199.632 78.1199 195.767 77.8083 194.735 75.9225C194.473 75.447 194.277 74.6598 194.85 73.6432C196.324 71.003 196.111 61.574 192.836 59.6062C192.443 59.3766 192.328 58.8683 192.557 58.4747C192.787 58.0812 193.294 57.9664 193.687 58.196C197.945 60.7541 198.158 71.085 196.291 74.4467C196.046 74.8894 196.144 75.0698 196.193 75.1518C196.635 75.9553 199.042 76.4637 200.516 76.5457C200.975 76.5785 201.319 76.9556 201.286 77.4148C201.237 77.8411 200.877 78.1691 200.451 78.1691Z" fill="#DD6B66"/>
<path d="M201.499 83.3836C199.435 83.3836 197.912 82.8917 197.88 82.8917C197.454 82.7441 197.208 82.2849 197.356 81.8586C197.503 81.4322 197.962 81.1862 198.387 81.3338C198.649 81.4158 204.921 83.3836 208.328 78.3821C208.59 78.005 209.097 77.923 209.474 78.1689C209.851 78.4313 209.949 78.9397 209.687 79.3168C207.394 82.6457 204.054 83.3836 201.499 83.3836Z" fill="#DD6B66"/>
<path d="M188.627 69.314C187.497 69.314 186.498 68.1333 186.203 66.4279C185.892 64.5913 186.58 63.0498 187.808 62.8367C188.463 62.7219 189.135 63.0334 189.659 63.673C190.068 64.1977 190.379 64.9028 190.51 65.69C190.822 67.5266 190.134 69.068 188.906 69.2812C188.807 69.2976 188.709 69.314 188.627 69.314ZM188.07 64.4601C187.956 64.5257 187.645 65.1488 187.825 66.1491C187.988 67.1494 188.48 67.6414 188.643 67.6578C188.758 67.5922 189.069 66.969 188.889 65.9687C188.709 64.9684 188.218 64.4765 188.07 64.4601Z" fill="#35164B"/>
<path d="M209.278 67.3953C208.148 67.3953 207.149 66.2146 206.854 64.5092C206.543 62.6726 207.231 61.1311 208.459 60.918C209.114 60.8196 209.785 61.1147 210.309 61.7543C210.719 62.279 211.03 62.9841 211.161 63.7713C211.472 65.6079 210.784 67.1493 209.556 67.3625C209.458 67.3789 209.36 67.3953 209.278 67.3953ZM208.721 62.5414C208.606 62.607 208.295 63.2301 208.475 64.2304C208.639 65.2307 209.13 65.7227 209.294 65.7391C209.409 65.6735 209.72 65.0503 209.54 64.05C209.36 63.0497 208.868 62.5578 208.721 62.5414Z" fill="#35164B"/>
<path d="M210.146 77.5131C203.448 77.5131 197.978 72.0525 197.978 65.3292C197.978 58.6223 203.431 53.1453 210.146 53.1453C216.86 53.1453 222.313 58.6059 222.313 65.3292C222.313 72.0361 216.86 77.5131 210.146 77.5131ZM210.146 54.7851C204.348 54.7851 199.616 59.5078 199.616 65.3292C199.616 71.1506 204.332 75.8733 210.146 75.8733C215.959 75.8733 220.675 71.1506 220.675 65.3292C220.675 59.5078 215.959 54.7851 210.146 54.7851Z" fill="white"/>
<path d="M181.061 79.2514C174.363 79.2514 168.894 73.7908 168.894 67.0675C168.894 60.3606 174.347 54.8835 181.061 54.8835C187.759 54.8835 193.212 60.3442 193.212 67.0675C193.212 73.7908 187.759 79.2514 181.061 79.2514ZM181.061 56.5398C175.264 56.5398 170.531 61.2625 170.531 67.0839C170.531 72.9053 175.248 77.628 181.061 77.628C186.875 77.628 191.575 72.9053 191.575 67.0839C191.575 61.2625 186.858 56.5398 181.061 56.5398Z" fill="white"/>
<path d="M198.075 64.1623L192.633 64.5139L192.738 66.1503L198.18 65.7986L198.075 64.1623Z" fill="white"/>
<path d="M232.464 42.724L219.834 60.1907L221.161 61.1524L233.791 43.6858L232.464 42.724Z" fill="white"/>
<path d="M237.641 59.7209C237.478 59.7209 237.314 59.6717 237.166 59.5733C236.79 59.3109 236.708 58.8026 236.954 58.4254C238.558 56.1132 239.148 54.0142 238.722 52.1776C238.182 49.8327 236.102 48.6684 236.086 48.6684C235.693 48.4552 235.545 47.9469 235.758 47.5533C235.971 47.1598 236.462 47.0122 236.872 47.2254C236.986 47.2909 239.59 48.734 240.311 51.7841C240.867 54.0962 240.18 56.6544 238.296 59.3765C238.165 59.5897 237.903 59.7209 237.641 59.7209Z" fill="#DD6B66"/>
<path d="M235.791 54.785H235.774C235.316 54.7686 234.972 54.3915 234.972 53.9487C234.972 53.7027 235.07 51.5874 236.43 50.6854C236.921 50.3575 237.772 50.0787 239.001 50.5707C239.426 50.7346 239.623 51.2102 239.459 51.6366C239.295 52.0629 238.804 52.2597 238.395 52.0957C237.936 51.9153 237.576 51.8989 237.33 52.0629C236.806 52.4073 236.626 53.5224 236.61 53.9979C236.593 54.4407 236.233 54.785 235.791 54.785Z" fill="#DD6B66"/>
</svg>
